<svg width="114" height="113" viewBox="0 0 114 113" fill="none" xmlns="http://www.w3.org/2000/svg">
<path fill-rule="evenodd" clip-rule="evenodd" d="M95.0422 2.7279C91.4349 3.40429 82.288 3.66196 79.0027 3.21103C76.7803 2.88894 76.0714 2.88894 75.7171 3.21103C73.9779 4.66043 78.0684 6.04533 84.8966 6.36741L89.2447 6.56069L87.1512 7.33367C79.0346 10.3291 75.073 12.9057 77.1021 13.9364C79.2279 15.0315 79.7754 14.9349 84.4456 12.8736C86.8613 11.8107 88.9229 10.9088 88.9874 10.9088C89.0518 10.9088 88.5361 11.6497 87.7953 12.5837C83.9625 17.415 83.576 20.9257 87.0223 19.4441C88.214 18.9288 90.8229 16.3843 93.9149 12.7448C95.2355 11.1665 97.7155 8.65418 99.3904 7.14038C104.544 2.43793 103.288 1.18189 95.0422 2.7279ZM68.4058 16.03C65.5392 17.2539 59.2264 21.4088 59.0009 22.2141C58.2923 24.8874 62.673 24.7262 66.7635 21.9563C68.3095 20.8934 70.6929 19.3475 72.0779 18.5101C76.6193 15.7079 73.7202 13.7754 68.4058 16.03ZM52.7528 25.9502C49.693 27.5929 44.185 33.2293 44.3461 34.4854C44.6681 36.6434 48.1144 35.806 50.7233 32.9716L54.6853 28.688C55.9092 27.3996 56.8107 26.1435 56.7463 25.918C56.5531 25.3061 53.9445 25.3061 52.7528 25.9502ZM40.6746 39.2845C38.1301 40.7661 35.5531 50.0421 37.0347 52.3289C38.935 55.2277 42.1237 50.1065 44.5071 40.2507C44.8292 39.0268 42.2206 38.3827 40.6746 39.2845ZM49.9503 42.7952C45.6988 43.9225 44.9902 44.4379 46.2141 45.4363C47.1482 46.1771 49.2417 46.2093 51.1098 45.4685C53.8798 44.4056 61.4166 45.3719 62.0285 44.4056C63.2524 42.4087 55.3292 41.3458 49.9503 42.7952ZM65.0239 46.1771C64.9273 46.4348 64.9917 47.3366 65.2172 48.174C65.958 51.3305 64.6696 56.6449 62.4794 59.3182C60.8046 61.3795 60.7402 61.7016 61.8675 61.9593C66.6021 63.151 71.1757 55.0989 69.4043 48.7216C68.7601 46.467 65.6359 44.5989 65.0239 46.1771ZM28.5318 54.9378C25.1177 56.1617 19.0303 66.7905 21.0916 67.9178C22.9597 68.9163 24.8922 67.3703 28.3708 62.1203C29.8524 59.8979 31.4306 57.5467 31.9137 56.9025C33.2341 55.0989 31.2373 53.9394 28.5318 54.9378ZM38.0332 57.4179C35.9396 58.9317 39.9013 63.3764 45.1191 65.3412C48.4043 66.5651 56.9077 66.2108 57.423 64.8258C57.8739 63.6341 56.7144 63.2798 52.5918 63.3764C48.1148 63.4731 46.4074 62.8611 44.4427 60.3811C41.6727 56.9025 39.8691 56.0651 38.0332 57.4179ZM16.6147 74.7783C14.2634 76.0022 11.4613 88.0804 13.2328 89.4009C16.0027 91.43 17.8064 88.8534 18.8693 81.381C19.8355 74.4562 19.449 73.2967 16.6147 74.7783ZM13.1362 95.6816C11.2681 96.5834 11.3003 108.662 13.1362 109.853C16.5181 112.011 17.9353 109.241 17.3233 101.833C16.7436 95.0374 16.196 94.2 13.1362 95.6816Z" fill="url(#paint0_linear_6_32)"/>
<defs>
<linearGradient id="paint0_linear_6_32" x1="13.3811" y1="2.10107" x2="100.806" y2="2.77298" gradientUnits="userSpaceOnUse">
<stop stop-color="#6A725D"/>
<stop offset="1" stop-color="#8B967C"/>
</linearGradient>
</defs>
</svg>
